<?xml version="1.0" encoding="utf-8"?>
<!-- Generator: Adobe Illustrator 21.1.0, SVG Export Plug-In . SVG Version: 6.00 Build 0)  -->
<svg version="1.1" id="Layer_1" xmlns="http://www.w3.org/2000/svg" xmlns:xlink="http://www.w3.org/1999/xlink" x="0px" y="0px"
	 viewBox="0 0 1000 1000" style="enable-background:new 0 0 1000 1000;" xml:space="preserve">
<style type="text/css">
	.st0{fill:#FFFFFF;stroke:#000000;stroke-miterlimit:10;}
	.st1{fill:#EF5323;}
	.st2{fill:#174A75;}
	.st3{fill:#FFFFFF;}
</style>
<g>
	<g>
		<g>
			<path class="st1" d="M748.6,438.7l88.5-66.2c-5.8-22.8-16-43.4-29.4-61.1c-13.4-17.7-30.1-32.4-48.8-43.5
				c-18.8-11.1-39.7-18.7-61.6-22s-44.9-2.4-67.7,3.4c-22.8,5.8-43.4,16-61.1,29.4s-32.4,30.1-43.5,48.8s-18.7,39.7-22,61.6
				c-3.3,21.9-2.4,44.9,3.4,67.7c5.8,22.8,16,43.4,29.4,61.1c13.3,17.5,29.8,32.2,48.4,43.3l164-122.7
				C748.3,438.6,748.5,438.7,748.6,438.7z"/>
			<path class="st2" d="M797,482c-13.3-17.5-29.8-32.2-48.4-43.3c-0.1-0.1-0.3-0.2-0.4-0.2l-164,122.7l-88.5,66.2
				c5.8,22.8,16,43.4,29.4,61.1c13.4,17.7,30.1,32.4,48.8,43.5s39.7,18.7,61.6,22c21.9,3.3,44.9,2.4,67.7-3.4
				c22.8-5.8,43.4-16,61.1-29.4s32.4-30.1,43.5-48.8c11.1-18.8,18.7-39.7,22-61.6c3.3-21.9,2.4-44.9-3.4-67.7
				C820.6,520.2,810.4,499.7,797,482z"/>
			<path class="st1" d="M325,243.9c-2,0-4,0-6,0.1h5.6v128v128v85.2c0.1,0,0.3,0,0.4,0c94.3,0,170.7-76.4,170.7-170.7
				S419.3,243.9,325,243.9z"/>
			<polygon class="st3" points="196.6,756.1 324.6,756.1 196.6,756.1 			"/>
			<polygon class="st2" points="324.6,372.1 324.6,244.1 319,244.1 196.6,244.1 196.6,372.1 196.6,500.1 196.6,628.1 196.6,756.1 
				324.6,756.1 324.6,628.1 324.6,585.3 324.6,500.1 			"/>
		</g>
	</g>
</g>
</svg>
