<?xml version="1.0" encoding="UTF-8" standalone="no"?>
<!DOCTYPE svg PUBLIC "-//W3C//DTD SVG 1.1//EN" "http://www.w3.org/Graphics/SVG/1.1/DTD/svg11.dtd">
<svg width="100%" height="100%" viewBox="0 0 1000 1000" version="1.1" xmlns="http://www.w3.org/2000/svg" xmlns:xlink="http://www.w3.org/1999/xlink" xml:space="preserve" style="fill-rule:evenodd;clip-rule:evenodd;stroke-linejoin:round;stroke-miterlimit:1.41421;">
    <g>
        <path d="M748.6,438.7L837.1,372.5C831.3,349.7 821.1,329.1 807.7,311.4C794.3,293.7 777.6,279 758.9,267.9C740.1,256.8 719.2,249.2 697.3,245.9C675.4,242.6 652.4,243.5 629.6,249.3C606.8,255.1 586.2,265.3 568.5,278.7C550.8,292.1 536.1,308.8 525,327.5C513.9,346.2 506.3,367.2 503,389.1C499.7,411 500.6,434 506.4,456.8C512.2,479.6 522.4,500.2 535.8,517.9C549.1,535.4 565.6,550.1 584.2,561.2L748.2,438.5C748.3,438.6 748.5,438.7 748.6,438.7Z" style="fill:rgb(247,206,62);fill-rule:nonzero;"/>
        <path d="M797,482C783.7,464.5 767.2,449.8 748.6,438.7C748.5,438.6 748.3,438.5 748.2,438.5L584.2,561.2L495.7,627.4C501.5,650.2 511.7,670.8 525.1,688.5C538.5,706.2 555.2,720.9 573.9,732C592.6,743.1 613.6,750.7 635.5,754C657.4,757.3 680.4,756.4 703.2,750.6C726,744.8 746.6,734.6 764.3,721.2C782,707.8 796.7,691.1 807.8,672.4C818.9,653.6 826.5,632.7 829.8,610.8C833.1,588.9 832.2,565.9 826.4,543.1C820.6,520.2 810.4,499.7 797,482Z" style="fill:rgb(58,81,153);fill-rule:nonzero;"/>
        <path d="M325,243.9C323,243.9 321,243.9 319,244L324.6,244L324.6,585.2C324.7,585.2 324.9,585.2 325,585.2C419.3,585.2 495.7,508.8 495.7,414.5C495.7,320.2 419.3,243.9 325,243.9Z" style="fill:rgb(247,206,62);fill-rule:nonzero;"/>
        <path d="M196.6,756.1L324.6,756.1L196.6,756.1Z" style="fill:white;fill-rule:nonzero;"/>
        <path d="M324.6,372.1L324.6,244.1L319,244.1L196.6,244.1L196.6,756.1L324.6,756.1L324.6,628.1L324.6,585.3L324.6,500.1L324.6,372.1Z" style="fill:rgb(58,81,153);fill-rule:nonzero;"/>
    </g>
</svg>
